<svg id="duki1-negro" xmlns="http://www.w3.org/2000/svg" viewBox="0 0 447.91 432"><defs><style>.cls-1{fill:none;stroke:#000;stroke-linecap:round;stroke-miterlimit:10;stroke-width:4px;}</style></defs><path class="cls-1" d="M56.56,182.16C50.2,175.69,44.21,168,40.89,159.51c-1.44-3.68-6.5-17.5,2.72-13.93,18.75,7.28,33.47,23.19,50.88,32.86,15.35,8.53,31.36,15.42,48.69,18.69,13.54,2.55,27.37,3.68,40.71,7.26,14.68,3.93,28.15,11.45,35.27,25.38M55.76,181.66s19.4,15.26,20.66,15.26M51.48,176.59s-21.45,9.51,0,27.59a127.81,127.81,0,0,0,11.36,8.59c14.84,9.92,23.92,10.74,23.92,10.74M62.84,212.77s-17.61,7,3.79,19.51,31.45,15,34,15M78.31,240.1S54.77,250,78.31,259s43.22,12,50.37,11.14m-32.76-5.23s-20.49,11.9,11,18.17c3.55.7,6.94,1.25,10.17,1.67,25.34,3.26,40.29-1.67,40.29-1.67m-40.29,1.67s-10.17,14.62,8.71,15.87,36.49-6.27,37.75-6.27m-29.8,6.41s-2.92,16.15,15.95,12.39,36.46-12.39,36.46-12.39M395.44,183.41c6.36-6.47,12.35-14.18,15.67-22.65,1.44-3.67,6.5-17.5-2.72-13.92-18.75,7.27-33.47,23.19-50.88,32.86-15.35,8.52-31.36,15.42-48.69,18.68-13.54,2.56-27.37,3.69-40.71,7.26C253.43,209.58,240,217.1,232.84,231m142.74-32.85c1.26,0,20.66-15.27,20.66-15.27m-31,41.85s9.08-.82,23.92-10.74a125.9,125.9,0,0,0,11.36-8.59c21.45-18.08,0-27.59,0-27.59M351.4,248.57c2.52,0,12.58-2.51,34-15S389.16,214,389.16,214m-65.84,56.43c7.15.84,26.82-2.11,50.37-11.15s0-18.93,0-18.93m-79,44s15,4.93,40.29,1.67c3.23-.41,6.62-1,10.17-1.67,31.46-6.26,11-18.17,11-18.17m-67.6,29.45c1.26,0,18.88,7.52,37.75,6.26S334.94,286,334.94,286m-69.07,16s17.58,8.63,36.46,12.39S318.28,302,318.28,302"/></svg>