<svg xmlns="http://www.w3.org/2000/svg" xmlns:xlink="http://www.w3.org/1999/xlink" viewBox="0 0 447.91 432"><defs><style>.cls-1,.cls-2{fill:none;stroke:#fff;stroke-linecap:round;stroke-linejoin:round;stroke-width:4px;}.cls-1{filter:url(#filter);}.cls-2{filter:url(#filter-2);}</style><filter id="filter" x="19" y="128" width="414" height="204" filterUnits="userSpaceOnUse"><feOffset input="SourceAlpha"/><feGaussianBlur stdDeviation="5" result="blur"/><feFlood flood-color="#fff"/><feComposite operator="in" in2="blur"/><feComposite in="SourceGraphic"/></filter><filter id="filter-2" x="19" y="128" width="414" height="204" filterUnits="userSpaceOnUse"><feOffset input="SourceAlpha"/><feGaussianBlur stdDeviation="5" result="blur-2"/><feFlood flood-color="#fff"/><feComposite operator="in" in2="blur-2"/><feComposite in="SourceGraphic"/></filter></defs><g id="duki2-blanco"><path class="cls-1" d="M36.5,145s70,21.25,109,14.88c0,0-22,75.44,65,93.51V315s-24-53.11-89-43.55c0,0-2-42.5-43-47.82C78.5,223.63,88.5,162,36.5,145Zm56,47.82h33.65m11.35,60.57,14-13.82M415.5,145s-70,21.25-109,14.88c0,0,22,75.44-65,93.51V315s24-53.11,89-43.55c0,0,2-42.5,43-47.82C373.5,223.63,363.5,162,415.5,145Zm-56,47.82H325.85M314.5,253.39l-14-13.82"/></g><g id="duki2-blanco-2" data-name="duki2-blanco"><path class="cls-2" d="M36.5,145s70,21.25,109,14.88c0,0-22,75.44,65,93.51V315s-24-53.11-89-43.55c0,0-2-42.5-43-47.82C78.5,223.63,88.5,162,36.5,145Zm56,47.82h33.65m11.35,60.57,14-13.82M415.5,145s-70,21.25-109,14.88c0,0,22,75.44-65,93.51V315s24-53.11,89-43.55c0,0,2-42.5,43-47.82C373.5,223.63,363.5,162,415.5,145Zm-56,47.82H325.85M314.5,253.39l-14-13.82"/></g></svg>